<svg width="20" height="20" viewBox="0 0 121 200" fill="none" xmlns="http://www.w3.org/2000/svg">
<path d="M118.703 187.891C113.625 193.359 99.1719 200 80.8125 200C33.5469 200 23.3906 165.625 23.3906 145.312V89.0625H4.64062C2.6875 89.0625 0.734375 87.1094 0.734375 85.1562V58.5938C0.734375 55.8594 2.6875 53.125 5.42188 52.3438C29.6406 43.75 37.0625 22.6562 38.2344 6.64062C38.625 2.34375 40.9688 0 44.4844 0H72.2188C74.5625 0 76.125 1.95312 76.125 3.90625V49.2188H108.547C110.891 49.2188 112.453 50.7812 112.453 53.125V84.7656C112.453 87.1094 110.891 88.6719 108.547 88.6719H76.125V140.625C76.125 154.297 85.1094 161.719 102.688 154.688C104.25 153.906 106.203 153.516 107.375 153.906C108.938 154.297 109.719 155.078 110.5 157.031L119.094 182.031C119.875 183.984 120.266 186.328 118.703 187.891Z" fill="white"/>
</svg>
